<svg width="36" height="35" viewBox="0 0 36 35" fill="none" xmlns="http://www.w3.org/2000/svg">
<path id="Star 7" d="M17.0285 1.48307C17.2766 0.465688 18.7234 0.465688 18.9715 1.48307L20.6387 8.31808C20.8077 9.01108 21.6271 9.30934 22.2021 8.88712L27.8727 4.72282C28.7167 4.10297 29.825 5.03291 29.3611 5.97178L26.2447 12.2793C25.9288 12.9188 26.3648 13.6741 27.0766 13.7202L34.0973 14.1751C35.1423 14.2428 35.3935 15.6676 34.4347 16.0886L27.993 18.9173C27.3399 19.2041 27.1885 20.0629 27.7041 20.5558L32.7898 25.4171C33.5468 26.1407 32.8235 27.3936 31.8183 27.0998L25.0655 25.1261C24.3808 24.926 23.7128 25.4865 23.7909 26.1956L24.5621 33.1886C24.6768 34.2295 23.3173 34.7243 22.7362 33.8531L18.8319 28.0005C18.436 27.4071 17.564 27.4071 17.1681 28.0005L13.2638 33.8531C12.6827 34.7243 11.3232 34.2295 11.4379 33.1886L12.2091 26.1956C12.2872 25.4865 11.6192 24.926 10.9345 25.1261L4.18168 27.0998C3.17653 27.3936 2.45316 26.1407 3.21016 25.4171L8.29588 20.5558C8.81153 20.0629 8.6601 19.2041 8.00697 18.9173L1.5653 16.0886C0.606463 15.6676 0.857686 14.2428 1.9027 14.1751L8.92337 13.7202C9.6352 13.6741 10.0712 12.9188 9.75525 12.2793L6.6389 5.97178C6.17503 5.03291 7.28329 4.10297 8.12735 4.72282L13.7979 8.88712C14.3729 9.30934 15.1923 9.01108 15.3613 8.31808L17.0285 1.48307Z" fill="#80CFFF"/>
</svg>
