<svg width="35" height="33" viewBox="0 0 35 33" fill="none" xmlns="http://www.w3.org/2000/svg">
<path d="M16.5285 0.983072C16.7766 -0.0343083 18.2234 -0.0343122 18.4715 0.983068L20.0656 7.51871C20.2347 8.21171 21.0541 8.50997 21.6291 8.08775L27.0513 4.10584C27.8953 3.48599 29.0036 4.41593 28.5397 5.3548L25.5599 11.3861C25.2439 12.0256 25.6799 12.7808 26.3917 12.8269L33.1049 13.2619C34.1499 13.3296 34.4011 14.7544 33.4423 15.1754L27.2828 17.8803C26.6297 18.1671 26.4782 19.0259 26.9939 19.5187L31.8568 24.1671C32.6138 24.8907 31.8905 26.1436 30.8853 25.8498L24.4282 23.9626C23.7435 23.7624 23.0755 24.323 23.1537 25.032L23.891 31.7187C24.0058 32.7596 22.6463 33.2544 22.0652 32.3833L18.3319 26.787C17.936 26.1936 17.064 26.1936 16.6681 26.787L12.9348 32.3833C12.3537 33.2544 10.9942 32.7596 11.109 31.7187L11.8463 25.032C11.9245 24.323 11.2565 23.7624 10.5718 23.9626L4.11469 25.8498C3.10954 26.1436 2.38617 24.8907 3.14317 24.1671L8.00614 19.5187C8.52178 19.0259 8.37035 18.1671 7.71723 17.8803L1.5577 15.1754C0.598871 14.7544 0.850089 13.3296 1.8951 13.2619L8.60827 12.8269C9.32009 12.7808 9.75612 12.0256 9.44015 11.3861L6.46029 5.3548C5.99643 4.41594 7.10469 3.48599 7.94874 4.10584L13.3709 8.08775C13.9459 8.50997 14.7653 8.21171 14.9344 7.51871L16.5285 0.983072Z" fill="#6C1A40"/>
</svg>
